<?xml version="1.0" encoding="UTF-8"?>
<svg id="Layer_1" data-name="Layer 1" xmlns="http://www.w3.org/2000/svg" viewBox="0 0 200 200">
  <defs>
    <style>
      .cls-1 {
        fill: #fff;
        fill-rule: evenodd;
      }
    </style>
  </defs>
  <path class="cls-1" d="M199.56,55.59c-.01-2-.03-4.01-.09-6.01-.12-4.36-.38-8.76-1.15-13.08-.79-4.38-2.07-8.46-4.1-12.44-1.99-3.91-4.59-7.48-7.69-10.59-3.1-3.1-6.68-5.7-10.59-7.69-3.98-2.02-8.05-3.31-12.43-4.1-4.31-.77-8.72-1.03-13.08-1.15-2-.06-4.01-.08-6.01-.09-2.38-.01-4.76-.01-7.14-.01H62.72c-2.38,0-4.76,0-7.14.01-2,.01-4.01.03-6.01.09-4.36.12-8.77.38-13.08,1.16-4.38.79-8.45,2.07-12.43,4.1-3.91,1.99-7.49,4.59-10.59,7.69-3.1,3.1-5.7,6.68-7.69,10.59-2.02,3.98-3.31,8.06-4.1,12.44-.77,4.31-1.03,8.72-1.15,13.08-.06,2-.08,4.01-.09,6.01-.01,2.37-.01,4.75-.01,7.13v74.55c0,2.38,0,4.76.01,7.14.01,2,.03,4.01.09,6.01.12,4.36.38,8.76,1.15,13.08.79,4.38,2.07,8.46,4.1,12.44,1.99,3.91,4.59,7.48,7.69,10.59,3.1,3.1,6.68,5.7,10.59,7.69,3.98,2.02,8.05,3.31,12.43,4.1,4.31.77,8.72,1.03,13.08,1.15,2,.06,4.01.08,6.01.09,2.38.02,4.76.01,7.14.01h74.55c2.38,0,4.76,0,7.14-.01,2-.01,4.01-.03,6.01-.09,4.36-.12,8.77-.38,13.08-1.15,4.38-.79,8.45-2.07,12.43-4.1,3.91-1.99,7.49-4.59,10.59-7.69,3.1-3.1,5.7-6.68,7.69-10.59,2.02-3.98,3.31-8.06,4.1-12.44.77-4.31,1.03-8.72,1.15-13.08.06-2,.08-4.01.09-6.01.02-2.38.01-4.76.01-7.14V62.72c0-2.38,0-4.76,0-7.14ZM146.21,130.02c0,2.52-.02,4.81-.55,7.34-.51,2.45-1.45,4.76-2.9,6.83-1.44,2.07-3.29,3.77-5.45,5.04-2.19,1.29-4.47,2.02-6.91,2.52-4.59.92-7.73,1.13-10.68.54-2.84-.57-5.26-1.88-7.19-3.65-2.86-2.62-4.64-6.16-5.03-9.86-.45-4.34.99-8.97,4.24-12.38,1.64-1.72,3.71-3.08,6.46-4.15,2.88-1.12,6.06-1.79,10.95-2.77l3.87-.78c1.69-.34,3.15-.77,4.32-2.21,1.18-1.44,1.2-3.2,1.2-4.93v-43.86c0-3.36-1.5-4.27-4.71-3.66-2.29.45-51.5,10.37-51.5,10.37-2.78.67-3.75,1.58-3.75,5.02v64.25c0,2.52-.13,4.81-.66,7.34-.51,2.45-1.45,4.76-2.9,6.83-1.44,2.07-3.29,3.77-5.45,5.04-2.19,1.29-4.47,2.06-6.91,2.55-4.59.92-7.73,1.13-10.68.54-2.84-.57-5.26-1.92-7.19-3.68-2.86-2.62-4.52-6.16-4.91-9.86-.45-4.34.87-8.97,4.13-12.38,1.64-1.72,3.71-3.08,6.46-4.15,2.88-1.12,6.06-1.79,10.95-2.77,1.29-.26,2.58-.52,3.87-.78,1.69-.34,3.15-.77,4.32-2.21,1.17-1.43,1.31-3.12,1.31-4.85V51.21c0-1,.08-1.67.13-2,.24-1.56.86-2.9,1.99-3.84.94-.79,2.15-1.33,3.69-1.66h.02s59.19-11.95,59.19-11.95c.51-.11,4.79-.86,5.27-.91,3.2-.28,5,1.83,5,5.23v93.94h0Z"/>
</svg>