<?xml version="1.0" encoding="UTF-8"?>
<svg id="Layer_1" data-name="Layer 1" xmlns="http://www.w3.org/2000/svg" viewBox="0 0 200 200">
  <defs>
    <style>
      .cls-1 {
        fill: #fff;
      }
    </style>
  </defs>
  <path class="cls-1" d="M198.71,154.31c0,24.64-20.05,44.43-44.52,44.42l-108.59-.02c-24.41,0-44.32-19.89-44.31-44.31l.02-108.99C1.32,20.93,21.43,1.27,45.8,1.27h108.39c24.51,0,44.52,19.77,44.52,44.35v108.69ZM143.8,65.55c-2.9.38-4.68,3.02-4.24,5.69s2.87,4.44,5.56,4.06,4.57-2.81,4.19-5.57c-.35-2.52-2.67-4.55-5.51-4.18ZM56.95,87.63c1.92-.47,4.68.97,4.69,3.16l.11,24.05h7.4s-.01-23.05-.01-23.05c0-3.47-1.81-6.53-4.3-8.45-2.73-2.1-6.3-2.88-9.52-1.73l-8.77,3.11c-2.78-3.17-7.13-4.47-11.14-3.06l-5.7,2.01-.03-3.37-7.39.02v34.5s7.4,0,7.4,0v-25.37s7.12-1.77,7.12-1.77c2.01-.5,5.09.58,5.1,3.11l.13,24.04h7.39s.04-21.4.04-21.4c0-1.35-.13-2.57-.27-3.9l7.78-1.91ZM96.3,80.37v26.36s-3.99,1.43-3.99,1.43c-4.52,1.62-8.27-1.59-8.28-3.47l-.09-24.38h-7.38s-.02,22.35-.02,22.35c0,3.9,1.4,7.33,4.61,9.63,4.45,3.19,10.3,3.4,15.05.57l.17,1.09,7.32.02v-33.66s-7.4.06-7.4.06ZM132.73,112.56c2.06-1.29,2.88-3.62,3.12-5.96.62-6.05-3.41-9.47-8.68-11.16l-5.42-1.74c-1.3-.42-2.4-1.41-2.91-2.59-.65-1.51-.14-2.96,1.29-3.69,4.38-2.26,10.1-.96,14.42,1.19v-6.09c-6.16-2.97-14.38-3.26-19.89,1.07-1.33,1.05-2.51,2.35-2.97,3.99-1.09,3.85.6,7.8,3.91,10.01,3.94,2.64,7.96,2.57,11.59,4.43,1.8.92,2.68,3.03,1.68,4.88-.3.56-1.22.99-1.86,1.2-6.01,1.87-11.51-.14-17.12-2.26v5.28c6.19,3.74,16.49,5.41,22.84,1.44ZM148.13,114.83v-34.52s-7.41.03-7.41.03v34.53s7.41-.03,7.41-.03ZM164.22,103.62c-.93-2.06-1.26-4.22-1.3-6.5-.05-3.15.96-6.13,3.17-8.34,3.67-3.69,8.68-2.9,12.89-.19l-.02-6.03c-6.61-4.06-15.09-2.49-19.83,3.61-2.66,3.42-3.86,7.61-3.56,11.99.19,2.85.72,5.55,1.97,8.08,4.05,8.19,13.11,10.13,21.43,7.52v-5.05c-5.69.8-12.05.94-14.75-5.08ZM171.32,157.89c-.13.36-.08,1.1.17,1.22.56.28,1.4.07,1.87-.33,6.34-5.5,10.01-14.94,10.55-23.16.07-1.08.03-2.36-.56-3.2-.68-.97-1.95-1.51-3.13-1.8-6.2-1.5-12.72-1.24-18.78.8-1.47.49-8.05,3.16-7.05,4.99.15.28.81.56,1.18.51,5.29-.63,13.78-1.89,18.68-.37,1.37.43,2.16,1.5,2.13,2.95-.08,5.32-3.11,13.08-5.06,18.38ZM165.14,139.98c-9.24,4.25-18.77,7.31-28.63,9.71-16.27,3.96-33.05,5.6-49.76,4.07-21.75-1.99-45.92-9.88-65.12-20.2-.65-.35-1.37.02-1.65.52s-.14,1.17.37,1.58c17.36,14,40.45,23.79,62.52,27.13,22.26,3.37,45.06.5,65.82-8.09,6.8-2.81,13.14-6.32,19.11-10.49,1.22-.85,1.52-2.31.77-3.46s-2.03-1.41-3.44-.76Z"/>
</svg>