<?xml version="1.0" encoding="UTF-8"?>
<svg id="Layer_1" data-name="Layer 1" xmlns="http://www.w3.org/2000/svg" viewBox="0 0 200 200">
  <defs>
    <style>
      .cls-1 {
        fill: #fff;
      }
    </style>
  </defs>
  <path class="cls-1" d="M150.43,166.53c-33.09,1.61-80.99,1.87-113.79-.9-3.15-.27-6.18-.79-9.22-1.2-11.55-1.57-19.64-9.97-21.59-21.39-4.22-24.65-4.19-61.85,0-86.49,2.04-11.99,10.66-20.21,22.77-21.64,6.97-.82,13.71-1.55,20.9-1.89,33.61-1.56,66.97-1.56,100.58,0,7.19.33,13.93,1.06,20.9,1.89,12.1,1.43,20.72,9.64,22.77,21.63,4.19,24.58,4.2,61.92,0,86.5-2.02,11.8-10.42,20.03-22.33,21.56-6.99.9-13.77,1.59-20.98,1.94ZM130.79,99.79l-50.44-29.15v58.28s50.44-29.12,50.44-29.12Z"/>
</svg>