<?xml version="1.0" encoding="UTF-8"?>
<svg id="Layer_1" data-name="Layer 1" xmlns="http://www.w3.org/2000/svg" viewBox="0 0 200 200">
  <defs>
    <style>
      .cls-1 {
        fill: #fff;
        fill-rule: evenodd;
      }
    </style>
  </defs>
  <path class="cls-1" d="M166.18,32.11c1.81-10.48,4.45-17.07,7.4-17.09,5.47.02,9.93,22.87,9.93,51.08s-4.45,51.08-9.93,51.08c-2.25,0-4.32-3.89-5.99-10.4-2.64,23.82-8.11,40.2-14.46,40.2-4.91,0-9.31-9.83-12.28-25.35-2.02,29.51-7.09,50.44-13.04,50.44-3.73,0-7.13-8.29-9.64-21.8-3.03,27.87-10.01,47.42-18.17,47.42s-15.16-19.53-18.17-47.42c-2.49,13.51-5.9,21.8-9.64,21.8-5.94,0-11.01-20.94-13.04-50.44-2.96,15.52-7.35,25.35-12.28,25.35-6.33,0-11.82-16.37-14.46-40.2-1.65,6.53-3.74,10.4-5.99,10.4-5.49,0-9.93-22.87-9.93-51.08S20.93,15.03,26.42,15.03c2.95,0,5.57,6.61,7.4,17.09,2.93-18.08,7.68-29.82,13.05-29.82,6.38,0,11.9,16.62,14.53,40.73,2.56-17.56,6.45-28.75,10.79-28.75,6.09,0,11.27,22.01,13.2,52.72,3.61-15.74,8.84-25.62,14.63-25.62s11.01,9.88,14.61,25.62c1.93-30.71,7.09-52.72,13.2-52.72,4.34,0,8.21,11.19,10.79,28.75,2.61-24.12,8.15-40.73,14.51-40.73,5.36,0,10.12,11.76,13.05,29.82h0ZM2.29,61.09c0-12.62,2.53-22.84,5.64-22.84s5.64,10.22,5.64,22.84-2.53,22.84-5.64,22.84-5.64-10.24-5.64-22.84ZM186.44,61.09c0-12.62,2.53-22.84,5.64-22.84s5.64,10.22,5.64,22.84-2.53,22.84-5.64,22.84-5.64-10.24-5.64-22.84h0Z"/>
</svg>