<?xml version="1.0" encoding="UTF-8"?>
<svg id="Layer_1" data-name="Layer 1" xmlns="http://www.w3.org/2000/svg" viewBox="0 0 200 200">
  <defs>
    <style>
      .cls-1 {
        fill: #fff;
      }
    </style>
  </defs>
  <path class="cls-1" d="M200.01,115.79v6.24c-2.02,11.92-11.59,21.34-24.22,21.35l-68.13.04c-1.81,0-2.92-1.37-2.92-3.12V62.43c0-.85.71-1.98,1.49-2.29,13.19-5.32,27.98-4.29,40.47,3.91,10.39,6.82,18.06,18.63,19.23,32.25,7.55-2.94,15.54-2.46,22.64,1.95,5.99,3.71,10.03,10.19,11.43,17.56Z"/>
  <path class="cls-1" d="M102.41,140.85c-.09,1.58-1.6,2.55-2.81,2.49s-2.5-1.12-2.58-2.57l-1.12-20.36,1.11-54.9c.03-1.71,1.12-2.81,2.6-2.88,1.2-.06,2.76.9,2.8,2.55l1.21,55.25-1.22,20.41Z"/>
  <path class="cls-1" d="M93.89,140.91c-.07,1.57-1.42,2.55-2.47,2.55-1.47.01-2.58-1.13-2.65-2.72l-.84-20.29.87-50.25c.03-1.54.98-2.63,2.25-2.78s2.79.8,2.82,2.46l.98,50.57-.96,20.46Z"/>
  <path class="cls-1" d="M85.27,141.25c-.08,1.39-1.42,2.23-2.44,2.19-1.08-.04-2.21-.98-2.28-2.25l-1.06-20.75,1.06-42.45c.03-1.39,1.15-2.31,2.26-2.35,1.18-.04,2.42.86,2.46,2.35l1.19,42.46-1.2,20.78Z"/>
  <path class="cls-1" d="M76.76,141.32c-.07,1.24-1.38,2.08-2.14,2.08-1.14,0-2.21-.94-2.27-2.23l-1.02-20.73,1.04-44.01c.03-1.36,1.14-2.26,2.29-2.23.96.02,2.08.93,2.12,2.23l1.17,44.01-1.16,20.88Z"/>
  <path class="cls-1" d="M68.3,141.33c-.08,1.19-1.05,2.03-1.85,2.08-.96.06-2.13-.74-2.19-1.88l-1.27-21.09,1.26-45.19c.03-1.15,1-1.98,1.82-2.03,1.08-.07,2.17.71,2.22,2.04l1.42,45.2-1.41,20.87Z"/>
  <path class="cls-1" d="M59.88,141.66c-.07,1.01-1.24,1.79-1.99,1.72s-1.65-.92-1.7-1.83l-1.35-21.11,1.35-43.62c.03-1.07.88-1.89,1.73-1.98.74-.08,1.94.73,1.97,1.72l1.54,44.12-1.55,20.99Z"/>
  <path class="cls-1" d="M51.44,141.73c-.09,1.11-.93,1.81-1.77,1.8-.64,0-1.55-.83-1.6-1.63l-1.46-21.07,1.46-40.78c.03-.71,1.11-1.57,1.68-1.55.79.02,1.65.83,1.7,1.83l1.64,40.5-1.64,20.91Z"/>
  <path class="cls-1" d="M43.31,141.71c-.07.85-.88,1.65-1.41,1.67-.64.03-1.58-.72-1.64-1.48l-1.55-21.46,1.55-32.68c.03-.7.78-1.56,1.3-1.63.77-.1,1.69.65,1.74,1.59l1.76,32.75-1.74,21.25Z"/>
  <path class="cls-1" d="M35.1,141.7c-.07.77-.88,1.52-1.36,1.51-.46-.01-1.3-.74-1.34-1.28l-1.66-21.44,1.68-20.28c.04-.47.86-1.21,1.3-1.21s1.31.75,1.35,1.22l1.9,20.29-1.86,21.2Z"/>
  <path class="cls-1" d="M26.98,141.36c-.06.63-.68,1.46-1.07,1.48-.49.03-1.29-.67-1.34-1.28l-1.74-21.1,1.77-21.79c.03-.38.67-1.03,1.01-1.1.41-.08,1.28.65,1.32,1.1l2.01,21.8-1.96,20.89Z"/>
  <path class="cls-1" d="M18.9,140.78c-.04.4-.52,1.08-.79,1.23-.34.18-1.21-.48-1.26-1.03l-1.86-20.49,1.85-21.07c.03-.35.59-1.02.93-1.1s1.05.67,1.09,1.03l2.11,21.12-2.08,20.31Z"/>
  <path class="cls-1" d="M10.89,137.79c-.04.29-.52,1.26-.71,1.12l-1.01-.78-1.95-17.69,1.94-17.61c.04-.33.53-.93.78-1,.32-.09.88.69.93,1.06l2.2,17.65-2.18,17.24Z"/>
  <path class="cls-1" d="M3.49,131.17c-.05.3-.5.9-.67,1.04-.23.19-.94-.49-.98-.81l-1.5-10.93,1.51-10.89c.03-.23.54-.94.75-.87.28.09.8.59.86.97l1.7,10.81-1.67,10.69Z"/>
</svg>