<?xml version="1.0" encoding="UTF-8"?>
<svg id="Layer_1" data-name="Layer 1" xmlns="http://www.w3.org/2000/svg" viewBox="0 0 200 200">
  <defs>
    <style>
      .cls-1 {
        fill: #fff;
      }
    </style>
  </defs>
  <path class="cls-1" d="M106.79.45c48.49,4.12,88.28,41.37,92.01,91.07l.25,3.27c.25,3.35.28,6.67,0,10.02l-.28,3.39c-3.96,48.12-42.45,86.62-90.57,90.57l-3.39.28c-3.35.27-6.67.28-10.02,0l-3.38-.28C43.11,194.8,4.59,156.07.79,107.79c-.02-.26.01-.64-.34-.61v-15.14C5.42,42.46,42.83,5.17,92.43.45h14.36ZM119.15,131.08l33.75-62.47-72.41-.08-33.81,62.5,72.48.05Z"/>
</svg>